<svg xmlns="http://www.w3.org/2000/svg" viewBox="0 0 100 100">
  <rect width="100" height="100" rx="24" fill="#0FA958"/>
  <path transform="translate(20 20) scale(0.09585) translate(-540 -540)" fill="#ffffff" fill-rule="evenodd" clip-rule="evenodd" d="M989.548 1038.22H593.49V1002.86C593.49 953.187 612.947 905.547 647.581 870.422C682.215 835.298 729.187 815.565 778.167 815.565L953.064 815.566C953.064 835.599 945.217 854.813 931.25 868.978C917.282 883.144 898.337 891.102 878.584 891.102H778.167C748.942 891.102 720.913 902.877 700.247 923.836C689.519 934.716 681.231 947.609 675.741 961.639C676.103 961.628 676.466 961.621 676.83 961.621H989.548C1002.3 961.621 1014.54 956.481 1023.56 947.333C1032.58 938.184 1037.65 925.776 1037.65 912.837V745.045H717.141C704.383 745.045 692.149 750.185 683.128 759.334C674.107 768.483 669.039 780.89 669.039 793.829V830.769C657.022 838.607 645.771 847.776 635.511 858.181C617.653 876.292 603.489 897.449 593.51 920.448V793.829C593.51 760.575 606.535 728.683 629.72 705.169C652.906 681.655 684.352 668.444 717.141 668.444H1113.18V912.837C1113.18 946.091 1100.15 977.984 1076.97 1001.5C1053.78 1025.01 1022.34 1038.22 989.548 1038.22Z"/>
</svg>
